<?xml version="1.0" standalone="no"?>
<!DOCTYPE svg PUBLIC "-//W3C//DTD SVG 20010904//EN"
 "http://www.w3.org/TR/2001/REC-SVG-20010904/DTD/svg10.dtd">
<svg version="1.0" xmlns="http://www.w3.org/2000/svg"
 width="270.000000pt" height="270.000000pt" viewBox="0 0 270.000000 270.000000"
 preserveAspectRatio="xMidYMid meet">
<metadata>
Created by potrace 1.11, written by Peter Selinger 2001-2013
</metadata>
<g transform="translate(0.000000,270.000000) scale(0.100000,-0.100000)"
fill="#000000" stroke="none">
<path d="M1313 2393 c-7 -3 -13 -12 -13 -21 0 -15 -2 -15 -10 -2 -12 18 -10
25 -17 -85 -3 -49 -7 -92 -9 -94 -2 -2 -4 39 -4 92 0 92 -10 123 -25 76 -6
-17 -9 -18 -16 -8 -17 28 -18 -2 -4 -171 7 -96 12 -176 10 -178 -7 -7 -14 37
-30 188 -19 170 -42 236 -31 88 3 -49 4 -88 2 -88 -2 0 -9 38 -16 85 -14 100
-36 118 -27 23 6 -61 -2 -50 -18 24 -4 22 -10 26 -33 24 -15 -2 -28 -4 -29 -5
-1 0 5 -21 14 -47 8 -25 13 -48 10 -50 -3 -3 -14 17 -24 45 -22 63 -41 63 -64
1 -17 -44 -17 -44 -24 -17 -4 15 -13 27 -21 27 -18 0 -19 5 16 -80 16 -40 30
-76 30 -79 0 -13 -38 57 -49 92 -7 20 -19 37 -27 37 -8 0 -14 -2 -14 -5 0 -3
25 -55 56 -116 30 -61 53 -113 50 -116 -2 -3 -29 47 -60 111 -30 64 -59 116
-65 116 -15 0 -14 -15 4 -53 8 -18 10 -24 3 -14 -7 10 -18 26 -25 35 -15 22
-30 6 -16 -17 29 -46 153 -272 153 -278 0 -10 -49 70 -109 180 -30 53 -60 97
-68 97 -15 0 -17 -12 -4 -25 5 -6 34 -54 65 -108 31 -54 63 -110 72 -125 l16
-27 -24 27 c-13 16 -50 72 -82 125 -68 112 -85 135 -97 127 -5 -3 6 -29 25
-57 38 -60 58 -97 53 -97 -2 0 -25 30 -51 66 -32 43 -51 61 -56 54 -4 -7 -13
-15 -19 -19 -7 -5 -2 -20 16 -46 l26 -40 -34 30 c-24 21 -44 30 -69 30 -36 0
-38 -3 -25 -44 5 -16 4 -21 -4 -17 -6 4 -11 0 -11 -9 0 -9 -4 -13 -10 -10 -5
3 -10 2 -10 -3 0 -5 39 -49 88 -98 48 -48 75 -78 61 -66 -41 36 -56 26 -19
-13 19 -19 28 -35 21 -35 -8 0 -11 -6 -7 -16 7 -18 -79 41 -134 92 -46 41 -80
60 -80 42 0 -7 52 -51 115 -98 63 -47 115 -86 115 -88 0 -6 -170 106 -212 140
-15 12 -31 19 -34 15 -10 -10 22 -43 73 -75 23 -15 43 -31 43 -35 0 -10 -12
-4 -71 40 -50 35 -59 39 -59 23 0 -5 18 -23 41 -40 l41 -29 -27 -7 c-18 -4
-37 -1 -55 10 -40 23 -57 21 -35 -5 19 -20 19 -20 -9 -10 -15 6 -34 11 -42 11
-20 0 -17 -33 6 -63 15 -18 17 -27 8 -30 -19 -7 0 -22 55 -42 66 -25 52 -30
-17 -7 -62 21 -88 11 -34 -13 l33 -15 -37 6 c-53 9 -47 -9 10 -29 39 -14 41
-16 12 -11 -58 10 -63 9 -67 -2 -2 -6 55 -24 143 -45 80 -19 140 -35 132 -37
-7 -1 -72 11 -143 27 -75 17 -134 25 -139 20 -12 -11 7 -18 128 -45 121 -27
109 -30 -26 -8 -86 15 -122 14 -107 0 2 -3 36 -12 74 -20 l70 -16 -57 5 c-32
3 -58 1 -58 -4 0 -12 26 -21 63 -21 18 0 38 -4 46 -9 9 -6 -17 -7 -67 -4 -58
4 -82 3 -82 -6 0 -6 14 -11 32 -11 38 0 30 -10 -25 -30 -44 -16 -56 -42 -22
-49 11 -2 24 -9 30 -16 5 -7 19 -15 30 -18 15 -3 12 -5 -8 -6 -18 -1 -27 -6
-25 -13 3 -8 36 -13 97 -15 127 -3 129 -13 3 -13 -61 0 -102 -4 -102 -10 0 -5
10 -10 23 -11 l22 0 -22 -9 c-41 -17 -24 -30 40 -31 l62 -1 -65 -10 c-73 -10
-82 -15 -59 -31 9 -7 14 -18 11 -26 -3 -10 7 -12 49 -7 37 4 48 3 34 -3 -11
-5 -30 -10 -42 -10 -13 -1 -23 -6 -23 -12 0 -12 59 -8 120 6 21 5 22 5 8 -5
-10 -6 -40 -14 -67 -17 -27 -3 -55 -9 -62 -14 -26 -16 3 -23 54 -12 66 14 73
9 11 -9 -26 -7 -49 -19 -52 -27 -5 -14 3 -13 65 4 10 3 3 -2 -15 -10 -32 -15
-43 -34 -19 -36 6 0 -1 -5 -16 -11 -35 -12 -30 -31 9 -38 22 -4 30 -11 32 -29
1 -14 5 -27 7 -30 8 -7 73 26 148 76 37 25 70 44 72 41 5 -5 -50 -42 -164
-113 -28 -17 -40 -30 -33 -37 6 -6 29 4 67 29 31 21 74 48 94 59 21 12 57 36
81 53 24 17 48 31 54 31 6 0 -47 -39 -119 -86 -145 -96 -150 -100 -138 -107 5
-3 31 8 58 25 28 17 44 24 36 14 -7 -9 -31 -26 -52 -38 -22 -12 -39 -27 -39
-35 0 -19 27 -6 105 52 39 28 77 55 85 59 28 15 -64 -63 -117 -99 -57 -39 -68
-51 -54 -59 8 -5 91 49 152 98 14 12 -4 -7 -40 -41 -36 -35 -69 -63 -73 -63
-5 0 -8 -7 -8 -15 0 -18 12 -19 27 -4 9 9 10 6 6 -11 -5 -20 -4 -21 16 -11
l22 12 -20 -40 c-26 -49 -26 -51 -3 -51 10 0 45 20 76 45 32 25 61 45 64 45 4
0 -13 -19 -36 -43 -42 -43 -55 -71 -27 -61 11 5 13 2 9 -10 -11 -29 13 -17 52
27 22 23 76 88 122 144 45 56 88 105 95 109 17 11 -32 -54 -145 -188 -93 -111
-114 -145 -85 -136 10 4 141 156 240 280 10 13 -7 -15 -39 -62 -32 -47 -85
-118 -117 -158 -56 -69 -66 -91 -34 -79 7 3 42 46 77 96 35 49 66 88 68 86 6
-6 -95 -160 -114 -176 -17 -14 -19 -42 -2 -37 6 2 35 39 64 81 l52 77 7 -40
c6 -34 2 -50 -30 -106 -36 -66 -39 -88 -10 -64 15 12 16 9 13 -25 -4 -58 20
-56 65 5 38 50 68 70 47 29 -6 -11 -10 -28 -8 -37 3 -13 8 -10 21 13 l17 30
-6 -36 c-5 -35 -5 -36 25 -37 25 0 31 3 32 21 0 14 2 17 6 7 2 -8 7 -22 10
-30 6 -20 32 26 33 58 0 12 5 22 10 22 6 0 8 -10 6 -22 -10 -46 -10 -63 -1
-68 6 -3 18 34 27 85 15 78 17 82 13 30 -3 -33 -8 -78 -11 -100 -5 -32 -4 -38
6 -28 15 14 28 85 30 153 0 25 5 52 11 60 7 11 9 5 5 -25 -15 -112 -18 -195
-7 -195 6 0 12 15 12 33 2 30 2 30 6 5 5 -34 23 -37 24 -5 1 14 4 9 11 -16 13
-48 38 -46 55 3 7 19 12 27 12 18 1 -10 6 -18 11 -18 6 0 10 34 10 82 0 104 7
98 13 -12 2 -55 8 -85 16 -88 10 -3 11 20 8 104 l-5 109 10 -95 c12 -121 14
-126 33 -110 10 9 15 9 15 1 0 -6 5 -11 11 -11 8 0 10 19 6 63 -16 162 -19
202 -14 197 3 -3 12 -56 21 -119 9 -63 18 -116 21 -119 15 -15 17 17 5 90 -20
134 -22 155 -11 138 5 -8 14 -51 20 -95 16 -110 20 -125 33 -125 7 0 9 14 5
42 -16 113 -17 133 -8 106 5 -14 12 -54 16 -87 4 -34 11 -64 16 -67 18 -11 21
26 6 91 -8 36 -11 65 -7 65 5 0 14 -26 21 -57 7 -32 16 -62 20 -67 16 -18 20
1 10 45 -13 56 -6 64 9 10 6 -23 16 -40 23 -39 7 2 22 -7 35 -20 29 -29 42
-21 42 27 0 36 2 38 32 39 21 0 39 9 50 23 10 11 18 18 18 13 0 -4 5 -3 11 3
7 7 2 28 -20 72 -17 33 -29 61 -26 61 2 0 13 -17 24 -38 21 -41 48 -69 57 -59
3 3 -6 26 -21 52 -15 25 -25 48 -22 51 3 3 15 -12 26 -33 11 -22 27 -45 35
-52 14 -11 16 -11 16 6 0 10 -4 23 -8 29 -13 14 -63 104 -59 104 2 0 21 -25
41 -55 37 -57 63 -73 50 -33 -6 19 -4 21 7 12 8 -6 25 -14 39 -16 14 -3 34 -9
44 -13 20 -9 20 1 1 62 -5 16 -2 23 14 28 29 9 26 26 -9 60 -36 34 -53 26 -20
-10 13 -14 21 -27 18 -31 -9 -9 -53 59 -50 78 2 9 -7 22 -18 28 -12 6 -19 14
-16 17 3 3 31 -17 61 -46 52 -46 75 -61 75 -45 0 3 -24 29 -53 57 -55 54 -30
38 34 -21 21 -20 39 -29 43 -24 3 6 -35 47 -86 93 -51 45 -100 89 -108 97 -32
33 49 -30 128 -98 71 -62 102 -78 102 -52 0 4 -36 36 -80 71 -44 35 -80 66
-80 68 0 6 55 -32 106 -74 23 -18 44 -33 48 -33 18 0 1 29 -36 62 -24 20 -38
37 -33 38 6 0 27 -16 48 -35 21 -19 42 -35 48 -35 18 0 8 19 -22 40 -16 12
-28 25 -25 28 3 2 11 0 18 -6 7 -5 31 -15 53 -22 70 -20 130 21 70 48 -15 7
-25 20 -25 32 0 16 -15 28 -62 50 -35 16 -55 29 -45 30 30 0 14 23 -24 33 -19
5 -28 12 -22 14 7 3 49 -7 94 -22 54 -18 84 -24 91 -17 13 13 9 15 -102 47
-52 15 -99 32 -105 38 -7 7 -5 8 6 4 67 -23 183 -57 195 -57 9 0 14 6 12 13
-3 6 -40 22 -84 34 -89 24 -81 30 11 8 87 -21 92 -20 92 15 0 23 -6 31 -21 34
-174 33 -227 44 -208 45 13 1 55 -5 95 -13 124 -25 129 -25 138 7 5 19 4 29
-4 32 -37 11 -39 13 -14 14 15 1 27 6 27 13 0 6 7 19 16 29 22 25 12 46 -26
54 -26 6 -29 9 -16 18 8 7 16 21 18 32 3 18 -3 20 -42 20 -25 0 -83 -3 -130
-7 l-85 -7 70 14 c39 8 96 14 127 14 53 1 80 12 59 25 -5 3 -7 15 -4 26 7 24
11 25 -138 -1 -67 -11 -131 -18 -143 -16 -12 2 2 7 29 11 88 13 98 27 16 21
-41 -3 -86 -8 -100 -11 -21 -4 -23 -3 -9 6 9 5 50 15 90 20 72 10 215 44 225
54 10 10 -8 25 -25 19 -9 -3 -2 5 17 16 43 29 33 38 -19 17 -66 -26 -80 -18
-20 12 64 32 75 63 25 72 -25 4 -29 10 -27 29 3 18 0 22 -12 17 -41 -16 -49
-16 -23 0 23 16 38 44 22 44 -2 0 -38 -20 -78 -45 -97 -59 -119 -58 -31 1 82
56 100 71 91 80 -4 4 -24 -5 -44 -20 -79 -58 -145 -97 -156 -93 -7 2 8 16 33
32 79 50 150 107 150 121 0 21 -3 19 -74 -38 -76 -60 -133 -98 -123 -81 4 7
44 40 87 74 44 34 80 68 80 75 0 16 -16 19 -25 4 -3 -5 -40 -37 -83 -71 l-77
-61 84 82 c56 56 80 85 73 92 -7 7 -39 -17 -99 -74 -130 -123 -141 -127 -30
-10 53 57 97 111 97 120 -1 11 -28 -12 -70 -58 -39 -41 -70 -72 -70 -67 0 4
25 40 55 80 59 77 63 87 40 87 -8 0 -15 6 -15 13 0 6 -14 -4 -31 -23 l-31 -35
26 40 c14 22 26 48 26 57 0 23 -28 23 -53 1 -19 -18 -20 -17 -8 5 27 51 2 42
-43 -16 -26 -34 -49 -62 -51 -62 -5 0 33 68 50 90 18 22 26 50 15 50 -5 0 -28
-29 -51 -65 -73 -117 -57 -71 23 62 11 19 15 34 9 38 -11 6 -13 2 -80 -112
-23 -40 -44 -73 -47 -73 -3 0 17 43 45 97 50 95 59 132 20 83 -20 -25 -20 -25
-9 -1 18 36 -4 50 -24 15 l-16 -29 7 30 c6 28 5 29 -12 15 -17 -14 -18 -14 -6
8 9 18 9 22 -2 22 -8 0 -22 -18 -32 -40 -10 -23 -23 -43 -27 -47 -5 -3 0 13
11 36 12 22 21 45 21 51 0 22 -16 8 -34 -31 -25 -52 -42 -63 -20 -12 24 55 28
73 16 73 -6 0 -15 -12 -21 -27 l-11 -28 6 30 c16 86 5 101 -45 60 -24 -21 -31
-23 -31 -11 0 33 -19 14 -33 -31 -12 -40 -15 -43 -16 -20 -1 16 4 37 10 49 6
11 8 22 5 26 -15 14 -29 -24 -48 -134 -11 -66 -25 -123 -31 -129 -6 -7 -8 2
-4 25 7 43 35 185 43 223 4 16 2 27 -4 27 -9 0 -20 -36 -37 -128 -4 -18 -9
-31 -12 -28 -3 2 2 42 12 87 14 73 15 102 0 87 -3 -3 -12 -36 -20 -74 l-14
-69 6 68 c3 42 2 67 -5 67 -16 0 -22 -26 -23 -98 0 -37 -5 -89 -9 -117 -6 -37
-8 -14 -7 89 2 104 -1 140 -10 143 -10 4 -14 -23 -15 -109 l-2 -113 -3 108
c-4 129 -23 146 -23 20 0 -116 -20 -98 -22 20 -2 72 -5 87 -18 85 -8 -1 -19 0
-25 3 -5 4 -16 4 -22 2z m-73 -291 c-3 -7 -6 41 -7 105 l0 118 7 -105 c3 -58
4 -111 0 -118z m-130 99 c0 -38 -18 10 -23 59 l-6 55 14 -50 c8 -27 15 -57 15
-64z m549 57 c-7 -12 -16 -60 -21 -107 -6 -61 -13 -91 -27 -105 -11 -12 -32
-45 -46 -74 -25 -49 -29 -53 -53 -47 -15 4 -28 8 -30 10 -10 9 37 76 83 120
48 46 53 54 59 108 6 53 29 117 42 117 2 0 -1 -10 -7 -22z m-635 -53 c5 -22 4
-26 -4 -15 -5 8 -10 24 -10 34 0 26 6 18 14 -19z m294 -129 l-3 -121 -33 -3
c-29 -3 -33 -1 -29 15 8 27 35 171 43 228 12 86 25 16 22 -119z m-169 89 c1
-16 -1 -17 -9 -5 -5 8 -9 29 -9 45 1 29 1 29 9 5 4 -14 8 -34 9 -45z m436 13
c-4 -29 -11 -60 -17 -68 -6 -11 -7 -6 -4 15 3 17 8 47 12 68 10 56 17 44 9
-15z m-238 -145 c-2 -32 -3 -6 -3 57 0 63 1 89 3 58 2 -32 2 -84 0 -115z m481
92 c-12 -24 -23 -43 -26 -41 -4 5 36 86 43 86 3 0 -5 -20 -17 -45z m-892 -26
c14 -28 24 -53 22 -55 -2 -2 -16 21 -31 51 -15 30 -25 55 -22 55 3 0 16 -23
31 -51z m62 6 c-3 -3 -9 2 -12 12 -6 14 -5 15 5 6 7 -7 10 -15 7 -18z m65 -27
c31 -55 45 -183 21 -192 -26 -10 -31 -7 -43 22 -9 21 -13 212 -4 212 1 0 13
-19 26 -42z m314 -50 c-2 -18 -4 -4 -4 32 0 36 2 50 4 33 2 -18 2 -48 0 -65z
m280 50 c-3 -8 -6 -5 -6 6 -1 11 2 17 5 13 3 -3 4 -12 1 -19z m-460 -65 c-3
-10 -5 -2 -5 17 0 19 2 27 5 18 2 -10 2 -26 0 -35z m-197 -160 c8 -7 -17 -38
-32 -38 -8 0 -69 52 -135 115 l-119 116 140 -95 c78 -52 143 -96 146 -98z
m1037 165 c-8 -13 -32 -41 -52 -63 -39 -42 -32 -29 24 48 34 46 58 58 28 15z
m-1167 -8 c12 -16 19 -30 16 -30 -2 0 -14 14 -26 30 -12 17 -19 30 -16 30 2 0
14 -13 26 -30z m791 7 c-10 -9 -11 -8 -5 6 3 10 9 15 12 12 3 -3 0 -11 -7 -18z
m-47 -24 c-10 -16 -24 -39 -31 -53 -7 -14 -13 -19 -13 -12 0 14 47 92 56 92 4
0 -2 -12 -12 -27z m230 -88 c-53 -63 -99 -115 -103 -115 -4 0 -18 12 -32 26
l-24 26 25 19 c14 10 68 50 120 88 52 39 99 70 103 71 4 0 -36 -52 -89 -115z
m-697 58 c-3 -10 -5 -2 -5 17 0 19 2 27 5 18 2 -10 2 -26 0 -35z m583 40 c0
-14 -41 -75 -46 -70 -3 3 5 21 18 41 24 37 28 41 28 29z m-613 -25 c-3 -8 -6
-5 -6 6 -1 11 2 17 5 13 3 -3 4 -12 1 -19z m515 -7 c-9 -16 -18 -28 -21 -26
-4 5 27 55 34 55 2 0 -4 -13 -13 -29z m20 -31 c-9 -21 -18 -35 -20 -30 -3 9
25 70 33 70 2 0 -4 -18 -13 -40z m81 5 c-3 -9 -8 -14 -10 -11 -3 3 -2 9 2 15
9 16 15 13 8 -4z m-308 -46 c163 -22 308 -130 391 -291 9 -17 12 -33 7 -37 -5
-3 -2 -34 6 -71 15 -63 15 -64 21 -30 5 30 7 24 14 -39 7 -63 6 -76 -8 -86 -9
-7 -16 -26 -16 -43 0 -16 -9 -60 -20 -96 -12 -37 -19 -70 -16 -75 7 -11 -23
-51 -39 -51 -7 0 -22 -11 -33 -25 -11 -14 -23 -25 -28 -25 -4 0 4 12 18 28 39
42 78 105 78 125 0 10 -4 16 -8 13 -5 -3 -7 9 -5 27 3 28 0 25 -22 -22 -29
-63 -30 -65 -10 -57 26 10 -10 -37 -58 -74 -23 -19 -33 -24 -23 -12 11 12 16
25 13 29 -10 10 -48 -29 -43 -43 3 -7 -7 -22 -22 -33 -34 -25 -22 -40 14 -16
15 9 24 12 20 7 -8 -13 -94 -72 -104 -72 -4 0 0 4 8 10 21 13 7 22 -20 12 -15
-5 -24 -18 -26 -35 -3 -32 -4 -31 44 -12 31 13 35 14 22 1 -28 -27 -148 -56
-232 -56 -225 0 -411 133 -499 355 -30 78 -33 249 -5 335 51 154 161 272 308
331 94 37 160 44 273 28z m-614 -36 c13 -16 12 -17 -3 -4 -10 7 -18 15 -18 17
0 8 8 3 21 -13z m1042 -42 c-15 -22 -30 -38 -32 -36 -3 4 49 75 56 75 2 0 -8
-18 -24 -39z m-43 -11 c-11 -16 -26 -33 -32 -36 -7 -4 1 9 16 29 34 44 46 50
16 7z m-1025 0 c10 -11 16 -20 13 -20 -3 0 -13 9 -23 20 -10 11 -16 20 -13 20
3 0 13 -9 23 -20z m150 -28 c-6 -7 -35 18 -35 31 0 5 9 2 20 -8 11 -10 18 -20
15 -23z m-164 1 c13 -16 12 -17 -3 -4 -10 7 -18 15 -18 17 0 8 8 3 21 -13z
m1099 13 c0 -2 -8 -10 -17 -17 -16 -13 -17 -12 -4 4 13 16 21 21 21 13z m-960
-38 c0 -6 -7 -5 -15 2 -8 7 -15 17 -15 22 0 6 7 5 15 -2 8 -7 15 -17 15 -22z
m-40 -3 c7 -9 8 -15 2 -15 -5 0 -12 7 -16 15 -3 8 -4 15 -2 15 2 0 9 -7 16
-15z m-171 -15 c25 -12 65 -20 96 -20 65 0 85 -18 62 -54 -14 -21 -20 -23 -54
-16 -21 4 -69 24 -108 44 -56 29 -81 36 -127 36 -60 0 -88 16 -41 23 69 10
130 6 172 -13z m1486 -39 c-11 -4 -41 -17 -66 -29 -29 -14 -72 -23 -115 -26
-43 -2 -81 -10 -102 -22 -32 -19 -33 -19 -48 1 -19 26 -14 37 27 58 29 15 49
17 135 11 67 -4 108 -2 120 5 11 6 30 10 44 10 22 -1 23 -2 5 -8z m-1650 -91
c87 -25 108 -26 80 -3 -18 14 -18 15 -2 9 10 -3 22 -6 27 -6 5 0 8 -9 7 -21
-1 -16 -6 -19 -27 -14 -49 11 -160 47 -160 51 0 6 -3 6 75 -16z m1460 0 c-27
-4 -63 -13 -79 -19 -41 -16 -46 -4 -5 13 19 9 57 15 84 14 l50 0 -50 -8z
m-1206 -16 c10 -9 -45 -3 -59 6 -11 7 -5 8 20 4 19 -4 37 -8 39 -10z m1459 11
c-10 -10 -98 -33 -98 -25 0 4 17 12 38 18 42 11 68 14 60 7z m-281 -21 c-3 -3
-12 -4 -19 -1 -8 3 -5 6 6 6 11 1 17 -2 13 -5z m-37 -9 c0 -2 -10 -9 -22 -15
-22 -11 -22 -10 -4 4 21 17 26 19 26 11z m135 -10 c-16 -8 -41 -14 -55 -15
-14 0 -44 -9 -68 -20 -28 -13 -42 -15 -39 -7 4 14 51 31 122 45 69 13 75 12
40 -3z m-1270 -5 c-3 -5 -13 -10 -21 -10 -8 0 -12 5 -9 10 3 6 13 10 21 10 8
0 12 -4 9 -10z m-88 -56 c-3 -3 -12 -4 -19 -1 -8 3 -5 6 6 6 11 1 17 -2 13 -5z
m-64 -21 c-7 -2 -21 -2 -30 0 -10 3 -4 5 12 5 17 0 24 -2 18 -5z m1600 0 c-7
-2 -21 -2 -30 0 -10 3 -4 5 12 5 17 0 24 -2 18 -5z m-1463 -38 c0 -20 -6 -37
-12 -39 -7 -3 -80 -7 -163 -10 l-150 -5 70 19 c39 11 108 30 155 44 47 13 88
24 93 25 4 1 7 -15 7 -34z m1370 24 c-25 -4 -61 -7 -80 -7 l-35 1 35 7 c19 4
55 7 80 7 l45 0 -45 -8z m-1582 -6 c-10 -2 -26 -2 -35 0 -10 3 -2 5 17 5 19 0
27 -2 18 -5z m1440 -10 c-10 -2 -26 -2 -35 0 -10 3 -2 5 17 5 19 0 27 -2 18
-5z m37 -53 c33 -6 89 -17 125 -25 36 -8 78 -17 94 -20 15 -3 27 -7 25 -9 -2
-2 -88 -1 -191 2 l-188 5 0 37 0 38 38 -9 c20 -5 64 -14 97 -19z m193 13 c-10
-2 -28 -2 -40 0 -13 2 -5 4 17 4 22 1 32 -1 23 -4z m-1510 -50 c-26 -2 -71 -2
-100 0 -29 2 -8 3 47 3 55 0 79 -1 53 -3z m20 -30 c-10 -2 -26 -2 -35 0 -10 3
-2 5 17 5 19 0 27 -2 18 -5z m1205 -10 c-7 -2 -21 -2 -30 0 -10 3 -4 5 12 5
17 0 24 -2 18 -5z m-1455 -20 c-10 -2 -26 -2 -35 0 -10 3 -2 5 17 5 19 0 27
-2 18 -5z m1429 -9 c-3 -3 -12 -4 -19 -1 -8 3 -5 6 6 6 11 1 17 -2 13 -5z
m-70 -36 c-3 -7 -5 -2 -5 12 0 14 2 19 5 13 2 -7 2 -19 0 -25z m416 25 c-7 -2
-21 -2 -30 0 -10 3 -4 5 12 5 17 0 24 -2 18 -5z m-330 -30 c-7 -2 -21 -2 -30
0 -10 3 -4 5 12 5 17 0 24 -2 18 -5z m332 -3 c27 -7 28 -8 5 -8 -14 0 -45 3
-70 7 l-45 8 40 1 c22 0 54 -4 70 -8z m-1475 -25 c23 -60 22 -71 -5 -83 -14
-7 -38 -12 -54 -12 -55 0 -122 -32 -184 -89 -34 -31 -57 -49 -51 -41 59 84 82
104 152 138 54 26 81 46 99 74 14 21 27 38 30 38 2 0 8 -11 13 -25z m-312 8
c-10 -2 -28 -2 -40 0 -13 2 -5 4 17 4 22 1 32 -1 23 -4z m70 -30 c-10 -2 -28
-2 -40 0 -13 2 -5 4 17 4 22 1 32 -1 23 -4z m1434 -32 c25 -16 49 -35 54 -42
4 -7 -9 0 -29 15 -20 16 -54 34 -74 42 -24 8 -30 13 -17 14 11 0 41 -13 66
-29z m59 11 c-7 -2 -18 1 -23 6 -8 8 -4 9 13 5 13 -4 18 -8 10 -11z m-1393 3
c-8 -8 -239 -37 -245 -31 -5 5 20 10 132 24 88 12 120 13 113 7z m1317 -38
c34 -23 127 -107 119 -107 -3 0 -31 22 -61 50 -31 27 -75 59 -97 70 -23 11
-30 18 -16 14 14 -4 39 -16 55 -27z m122 27 c-3 -3 -12 -4 -19 -1 -8 3 -5 6 6
6 11 1 17 -2 13 -5z m40 -10 c-3 -3 -12 -4 -19 -1 -8 3 -5 6 6 6 11 1 17 -2
13 -5z m-229 -38 c15 -8 54 -42 87 -76 51 -52 70 -64 127 -81 37 -11 70 -24
73 -28 3 -5 -16 -3 -42 4 -27 8 -66 18 -88 24 -22 6 -64 29 -94 51 -29 22 -73
45 -96 51 l-43 11 15 29 c16 33 23 35 61 15z m-1150 -33 c-10 -2 -28 -2 -40 0
-13 2 -5 4 17 4 22 1 32 -1 23 -4z m-25 -30 c-7 -2 -19 -2 -25 0 -7 3 -2 5 12
5 14 0 19 -2 13 -5z m1406 -63 c28 -6 53 -16 56 -20 3 -5 -23 0 -57 11 -41 12
-72 29 -92 50 l-31 33 36 -31 c21 -17 60 -36 88 -43z m-1332 54 c-3 -3 -12 -4
-19 -1 -8 3 -5 6 6 6 11 1 17 -2 13 -5z m82 -96 c-65 -83 -144 -176 -147 -173
-2 2 12 27 30 57 19 29 52 86 73 126 38 73 38 73 58 54 19 -20 19 -20 -14 -64z
m938 35 c18 -24 35 -53 30 -53 -3 0 -17 16 -31 35 -15 19 -24 35 -20 35 4 0
13 -8 21 -17z m68 -3 c10 -11 16 -20 13 -20 -3 0 -13 9 -23 20 -10 11 -16 20
-13 20 3 0 13 -9 23 -20z m-38 -85 c73 -86 93 -118 31 -50 -68 75 -98 112 -98
121 0 4 2 5 4 3 2 -2 30 -35 63 -74z m82 -133 c46 -51 82 -94 80 -96 -2 -2
-44 41 -94 96 -49 55 -107 118 -127 139 -21 21 -38 43 -38 48 0 10 31 -23 179
-187z m-1009 175 c0 -2 -19 -21 -42 -42 l-43 -40 40 43 c36 39 45 47 45 39z
m925 -129 c65 -73 110 -126 99 -117 -10 9 -77 56 -149 104 -71 49 -132 89
-134 91 -4 3 51 53 59 54 3 0 59 -60 125 -132z m-895 119 c0 -2 -10 -12 -22
-23 l-23 -19 19 23 c18 21 26 27 26 19z m-40 -50 c0 -2 -15 -16 -32 -33 l-33
-29 29 33 c28 30 36 37 36 29z m168 -19 c22 -22 13 -64 -25 -112 -34 -44 -37
-54 -43 -129 -3 -45 -11 -91 -17 -102 -10 -17 -11 -15 -6 17 3 21 0 65 -6 98
-12 60 -12 60 24 123 19 35 35 76 35 90 0 29 18 35 38 15z m873 -15 c13 -16
12 -17 -3 -4 -17 13 -22 21 -14 21 2 0 10 -8 17 -17z m-1111 4 c0 -2 -10 -12
-22 -23 l-23 -19 19 23 c18 21 26 27 26 19z m310 -67 c-16 -40 -23 -33 -9 9 6
18 14 30 17 27 2 -3 -1 -19 -8 -36z m409 14 c15 -19 21 -41 21 -76 0 -53 16
-92 50 -123 21 -19 50 -66 50 -81 0 -4 -9 5 -21 20 -11 14 -27 26 -36 26 -31
0 -80 63 -87 112 -4 27 -19 64 -36 87 -35 48 -35 48 -12 54 37 10 51 6 71 -19z
m111 -53 c-1 -9 -7 2 -15 24 -19 52 -18 70 0 26 8 -18 15 -41 15 -50z m-357
-41 c4 -52 6 -129 5 -170 l-3 -75 -17 70 c-9 39 -24 108 -33 155 -9 47 -18 93
-21 103 -5 16 -1 18 28 15 l33 -3 8 -95z m87 20 l-7 -55 -2 65 c0 36 3 60 8
55 4 -6 5 -35 1 -65z m-229 33 c-12 -20 -14 -14 -5 12 4 9 9 14 11 11 3 -2 0
-13 -6 -23z m166 -215 c-1 -46 -3 -9 -3 82 0 91 2 128 3 83 2 -46 2 -120 0
-165z m418 216 c9 -15 12 -23 6 -20 -11 7 -35 46 -28 46 3 0 12 -12 22 -26z
m-1075 13 c0 -2 -10 -12 -22 -23 l-23 -19 19 23 c18 21 26 27 26 19z m687
-149 c-2 -29 -3 -6 -3 52 0 58 1 81 3 53 2 -29 2 -77 0 -105z m-568 67 c-34
-41 -64 -75 -67 -75 -6 0 9 18 72 93 27 31 51 57 53 57 2 0 -24 -34 -58 -75z
m-49 62 c0 -2 -10 -12 -22 -23 l-23 -19 19 23 c18 21 26 27 26 19z m371 -24
c-14 -24 -55 -72 -45 -53 10 20 47 70 51 70 2 0 -1 -8 -6 -17z m551 -90 c11
-14 11 -16 -1 -9 -17 11 -41 69 -40 98 0 13 6 3 14 -25 7 -26 19 -55 27 -64z
m-457 36 c-5 -37 -4 -50 4 -45 6 4 11 14 11 23 0 9 2 14 4 12 2 -2 1 -31 -4
-64 -4 -36 -8 -47 -9 -27 -2 50 -18 38 -26 -20 -8 -55 -23 -105 -24 -78 -1 20
42 250 47 250 2 0 1 -23 -3 -51z m575 31 c6 -11 8 -20 6 -20 -3 0 -10 9 -16
20 -6 11 -8 20 -6 20 3 0 10 -9 16 -20z m-733 -20 c-7 -17 -13 -26 -15 -21 -3
10 15 51 22 51 3 0 -1 -14 -7 -30z m759 -102 c44 -87 24 -64 -26 30 -28 51
-50 96 -50 100 0 8 41 -62 76 -130z m29 100 l16 -33 -21 24 c-11 13 -20 27
-20 32 0 18 10 8 25 -23z m-348 -10 c-3 -8 -6 -5 -6 6 -1 11 2 17 5 13 3 -3 4
-12 1 -19z m201 -114 c17 -26 32 -55 32 -63 -1 -9 -7 -1 -15 17 -8 18 -30 52
-48 75 -39 48 -57 80 -57 99 0 7 13 -8 28 -33 15 -26 42 -68 60 -95z m-539 16
c-11 -57 -22 -106 -26 -109 -7 -7 1 44 24 147 23 110 26 81 2 -38z m-12 68
c-3 -8 -6 -5 -6 6 -1 11 2 17 5 13 3 -3 4 -12 1 -19z m360 -20 c-3 -7 -5 -2
-5 12 0 14 2 19 5 13 2 -7 2 -19 0 -25z m-30 0 c-3 -8 -6 -5 -6 6 -1 11 2 17
5 13 3 -3 4 -12 1 -19z m-370 -20 c-3 -8 -6 -5 -6 6 -1 11 2 17 5 13 3 -3 4
-12 1 -19z m346 -53 c4 -54 4 -61 -3 -30 -9 40 -13 112 -6 104 2 -2 6 -35 9
-74z m-30 35 c3 -11 1 -18 -4 -14 -5 3 -9 12 -9 20 0 20 7 17 13 -6z m-299
-39 c-4 -17 -9 -30 -11 -27 -3 2 -2 19 2 36 4 17 9 30 11 27 2 -2 1 -18 -2
-36z m-47 -53 c-3 -8 -6 -5 -6 6 -1 11 2 17 5 13 3 -3 4 -12 1 -19z m28 -28
c-4 -17 -9 -29 -12 -26 -3 2 -2 19 2 36 4 17 9 29 12 26 3 -2 2 -19 -2 -36z
m172 -2 c-3 -8 -6 -5 -6 6 -1 11 2 17 5 13 3 -3 4 -12 1 -19z"/>
<path d="M1542 1678 c-29 -6 -57 -23 -86 -51 -36 -35 -46 -52 -56 -102 -7 -33
-10 -92 -8 -132 4 -61 9 -75 29 -92 23 -19 23 -20 4 -26 -11 -4 -32 -13 -46
-20 -23 -12 -29 -11 -66 11 -32 18 -40 29 -36 44 6 24 -22 28 -31 4 -12 -32
-5 -52 30 -79 19 -15 40 -39 45 -53 10 -26 11 -26 25 -8 14 20 14 20 29 0 14
-19 15 -19 21 1 3 11 27 34 52 51 54 35 65 69 32 99 -34 31 -22 175 15 175 7
0 20 -9 29 -19 10 -11 28 -22 42 -25 31 -8 80 17 89 44 8 27 30 20 29 -9 -1
-22 20 -28 44 -12 30 19 8 55 -51 85 -54 27 -62 29 -108 20 -27 -6 -49 -8 -49
-6 0 11 37 31 57 32 12 0 25 5 29 12 5 8 10 7 18 -3 6 -8 25 -14 41 -15 17 -1
38 -5 48 -9 23 -10 23 17 -1 38 -20 18 -102 57 -117 56 -5 -1 -29 -5 -53 -11z
m43 -147 c7 -12 -12 -24 -25 -16 -11 7 -4 25 10 25 5 0 11 -4 15 -9z"/>
<path d="M1020 1669 c-39 -16 -100 -61 -95 -69 3 -5 28 1 56 11 53 20 107 18
142 -6 15 -10 7 -14 -49 -23 -97 -16 -138 -50 -99 -82 12 -10 16 -9 21 4 8 20
34 21 34 1 0 -22 38 -42 100 -53 44 -8 61 -7 88 5 39 19 41 41 6 82 -14 17
-23 31 -20 31 13 0 76 -63 76 -76 0 -8 5 -14 10 -14 6 0 10 17 10 38 0 47 -44
113 -92 138 -39 20 -153 28 -188 13z m90 -139 c0 -5 -9 -10 -20 -10 -11 0 -20
5 -20 10 0 6 9 10 20 10 11 0 20 -4 20 -10z m79 -36 c-12 -13 -25 -22 -27 -19
-9 8 29 56 39 49 6 -4 2 -15 -12 -30z"/>
<path d="M1785 1349 c-5 -48 -4 -74 4 -82 8 -8 11 11 11 71 0 45 -2 82 -4 82
-2 0 -7 -32 -11 -71z"/>
<path d="M1818 1325 c-4 -33 -10 -70 -14 -82 -4 -14 -2 -23 4 -23 13 0 25 71
20 125 -3 36 -4 35 -10 -20z"/>
<path d="M1740 1236 c-13 -34 -13 -56 0 -56 10 0 25 68 16 77 -3 3 -10 -6 -16
-21z"/>
<path d="M1267 1127 c-47 -21 -49 -21 -62 -3 -17 22 -35 13 -35 -17 0 -23 47
-57 78 -57 9 0 36 -9 60 -20 23 -10 58 -22 78 -26 30 -5 36 -3 41 14 3 13 27
30 64 47 55 24 72 46 49 60 -5 3 -18 0 -29 -7 -17 -10 -28 -9 -66 10 -56 27
-114 27 -178 -1z m111 -58 c42 0 44 -1 22 -10 -29 -12 -86 -4 -96 13 -5 8 -1
9 10 5 10 -4 39 -7 64 -8z"/>
<path d="M1304 975 c-17 -14 -15 -15 33 -9 45 6 52 4 62 -15 15 -27 41 -27 41
-1 0 37 -97 55 -136 25z"/>
<path d="M574 1998 c20 -27 95 -88 110 -88 5 0 -14 25 -44 55 -56 56 -96 77
-66 33z"/>
<path d="M540 1988 c0 -15 64 -68 81 -68 7 0 -5 18 -26 40 -41 42 -55 49 -55
28z"/>
<path d="M645 1890 c10 -11 25 -20 34 -20 12 1 10 5 -8 20 -30 26 -49 26 -26
0z"/>
<path d="M460 1841 c0 -14 50 -43 68 -39 13 3 8 10 -18 26 -38 24 -50 27 -50
13z"/>
<path d="M2233 1556 c-70 -15 -77 -26 -17 -25 59 1 95 10 95 24 0 14 -19 15
-78 1z"/>
<path d="M355 1480 c-3 -5 1 -10 9 -10 9 0 16 5 16 10 0 6 -4 10 -9 10 -6 0
-13 -4 -16 -10z"/>
<path d="M2190 1053 c0 -11 64 -43 85 -43 24 0 17 20 -10 30 -46 17 -75 22
-75 13z"/>
<path d="M901 541 c-29 -43 -40 -66 -33 -73 7 -7 22 8 47 47 52 81 40 103 -14
26z"/>
</g>
</svg>
